<?xml version="1.0" standalone="no"?>
<!DOCTYPE svg PUBLIC "-//W3C//DTD SVG 20010904//EN"
 "http://www.w3.org/TR/2001/REC-SVG-20010904/DTD/svg10.dtd">
<svg version="1.0" xmlns="http://www.w3.org/2000/svg"
 width="800.000000pt" height="88.000000pt" viewBox="0 0 800.000000 88.000000"
 preserveAspectRatio="xMidYMid meet">

<g transform="translate(0.000000,88.000000) scale(0.100000,-0.100000)"
fill="#000000" stroke="none">
<path d="M0 440 l0 -440 4000 0 4000 0 0 440 0 440 -4000 0 -4000 0 0 -440z
m2679 194 c21 -4 31 -12 31 -24 0 -15 -6 -17 -39 -13 -53 7 -88 -3 -102 -28
-20 -38 -3 -64 71 -108 77 -46 90 -63 90 -114 0 -71 -75 -117 -163 -100 -34 7
-43 13 -45 32 -3 20 -1 22 15 16 10 -5 36 -10 58 -13 51 -5 95 26 95 67 0 31
-14 46 -82 84 -82 47 -108 104 -72 156 17 24 66 50 95 51 9 0 31 -3 48 -6z
m1193 -4 c76 -22 126 -116 114 -219 -7 -61 -18 -85 -54 -124 -74 -78 -222 -46
-262 58 -18 46 -16 155 4 197 22 46 45 66 93 84 47 16 58 17 105 4z m811 2
c19 -1 27 -7 27 -21 0 -17 -6 -18 -62 -14 -110 8 -168 -46 -168 -157 0 -111
58 -165 168 -157 54 4 63 3 60 -12 -2 -10 -19 -19 -49 -24 -64 -12 -125 6
-170 51 -95 96 -58 285 64 326 36 12 53 13 130 8z m322 -3 c56 -15 93 -54 111
-116 26 -89 3 -187 -54 -235 -63 -53 -166 -45 -220 17 -87 99 -51 297 60 332
44 15 56 15 103 2z m2080 -5 c20 -8 15 -41 -6 -35 -139 36 -229 -23 -229 -151
0 -104 58 -161 160 -156 l55 3 3 68 3 67 -41 0 c-34 0 -40 3 -40 20 0 19 5 21
63 18 l62 -3 2 -93 c2 -92 1 -93 -24 -103 -128 -49 -256 10 -282 129 -31 145
65 261 206 247 28 -3 59 -8 68 -11z m-6795 -184 c0 -183 -1 -190 -20 -190 -19
0 -20 7 -20 190 0 183 1 190 20 190 19 0 20 -7 20 -190z m308 173 c-2 -14 -15
-19 -56 -21 l-52 -3 0 -170 c0 -162 -1 -169 -20 -169 -19 0 -20 7 -20 170 l0
169 -57 3 c-46 2 -59 7 -61 21 -3 15 8 17 133 17 125 0 136 -2 133 -17z m232
-105 c0 -138 11 -190 43 -213 33 -23 91 -19 124 9 l28 24 3 151 c3 141 5 151
23 151 18 0 19 -8 19 -142 0 -174 -10 -202 -81 -232 -82 -33 -167 4 -189 82
-11 41 -14 275 -3 285 3 4 12 7 20 7 10 0 13 -27 13 -122z m465 -40 l90 -157
3 160 c2 151 4 159 22 159 19 0 20 -7 20 -190 l0 -190 -27 0 c-25 0 -36 15
-118 159 l-90 159 -3 -159 c-2 -151 -4 -159 -22 -159 -19 0 -20 7 -20 191 l0
190 27 -3 c23 -3 39 -24 118 -160z m255 -28 c0 -183 -1 -190 -20 -190 -19 0
-20 7 -20 190 0 183 1 190 20 190 19 0 20 -7 20 -190z m144 24 c32 -90 60
-163 62 -162 1 2 29 75 62 163 50 135 62 161 81 163 21 3 21 2 8 -30 -8 -18
-40 -104 -73 -190 -51 -136 -62 -158 -80 -158 -22 0 -22 0 -140 318 l-23 62
22 0 c19 0 29 -19 81 -166z m456 145 c0 -15 -6 -20 -22 -19 -13 1 -45 2 -73 1
l-50 -1 3 -65 4 -65 69 0 c55 0 69 -3 69 -15 0 -12 -14 -15 -69 -15 l-69 0 -4
-70 -3 -69 75 -3 c62 -3 75 -6 78 -21 3 -15 -7 -17 -97 -17 l-101 0 0 190 0
190 95 0 c89 0 95 -1 95 -21z m249 6 c58 -29 60 -141 3 -159 -16 -5 -14 -15
25 -94 48 -100 51 -115 22 -110 -15 2 -29 22 -50 73 -37 85 -54 105 -91 105
l-28 0 0 -91 c0 -88 -1 -90 -22 -87 -23 3 -23 5 -26 178 -1 96 0 180 2 187 7
18 129 17 165 -2z m441 -175 c0 -183 -1 -190 -20 -190 -19 0 -20 7 -20 190 0
183 1 190 20 190 19 0 20 -7 20 -190z m415 99 l57 -90 59 90 c42 66 64 91 79
91 11 0 20 -2 20 -4 0 -3 -31 -53 -70 -112 l-70 -108 0 -78 c0 -71 -2 -78 -20
-78 -18 0 -20 7 -20 81 l0 82 -67 104 c-52 82 -68 101 -75 89 -7 -12 -24 -16
-63 -16 l-55 0 0 -170 c0 -163 -1 -170 -20 -170 -19 0 -20 7 -20 169 l0 170
-52 3 c-41 2 -54 7 -56 21 -3 16 10 17 156 17 l159 0 58 -91z m983 74 c-3 -15
-16 -19 -71 -21 l-67 -3 0 -64 0 -65 65 0 c51 0 65 -3 65 -15 0 -12 -14 -15
-65 -15 l-65 0 0 -90 c0 -83 -1 -90 -20 -90 -19 0 -20 7 -20 190 l0 190 91 0
c81 0 90 -2 87 -17z m1123 2 c33 -18 49 -50 49 -98 0 -62 -57 -107 -135 -107
l-35 0 0 -80 c0 -73 -2 -80 -20 -80 -19 0 -20 7 -20 190 l0 190 65 0 c40 0 78
-6 96 -15z m297 -2 c-3 -15 -16 -19 -76 -21 l-72 -3 0 -64 0 -65 70 0 c56 0
70 -3 70 -15 0 -12 -14 -15 -70 -15 l-70 0 0 -70 0 -70 53 -1 c28 -1 62 0 75
1 16 1 22 -4 22 -19 0 -20 -6 -21 -95 -21 l-95 0 0 190 0 190 96 0 c86 0 95
-2 92 -17z m217 -141 l90 -157 3 158 c2 149 4 157 22 157 19 0 20 -7 20 -191
l0 -190 -26 3 c-23 3 -40 26 -118 160 l-91 157 -3 -160 c-2 -151 -4 -159 -22
-159 -19 0 -20 7 -20 190 l0 190 28 0 c24 0 35 -15 117 -158z m265 73 l0 -85
95 0 95 0 0 85 c0 78 2 85 20 85 19 0 20 -7 20 -190 0 -183 -1 -190 -20 -190
-19 0 -20 7 -20 90 l0 90 -95 0 -95 0 0 -90 c0 -83 -1 -90 -20 -90 -19 0 -20
7 -20 190 0 183 1 190 20 190 18 0 20 -7 20 -85z m552 -105 c72 -179 75 -190
54 -190 -17 0 -26 11 -41 50 l-19 50 -96 0 -95 0 -18 -50 c-14 -38 -23 -50
-38 -50 -13 0 -19 5 -16 13 2 6 37 92 77 190 97 237 92 238 192 -13z m698 169
c0 -19 -5 -20 -67 -18 l-68 3 -3 -67 -3 -67 71 0 c56 0 70 -3 70 -15 0 -12
-14 -15 -70 -15 l-71 0 3 -72 3 -71 73 2 c67 2 72 1 72 -18 0 -20 -6 -21 -95
-21 l-95 0 0 190 0 190 90 0 c84 0 90 -1 90 -21z m224 -140 l91 -157 3 159 c2
151 4 159 22 159 19 0 20 -7 20 -190 l0 -190 -30 0 c-16 0 -30 3 -30 8 0 4
-41 77 -90 162 l-90 154 0 -162 c0 -155 -1 -162 -20 -162 -19 0 -20 7 -20 191
l0 190 26 -3 c23 -3 40 -26 118 -159z"/>
<path d="M3756 579 c-41 -32 -56 -71 -56 -142 0 -50 5 -71 23 -98 54 -80 153
-78 203 5 28 46 26 150 -3 197 -38 60 -116 78 -167 38z"/>
<path d="M4896 579 c-78 -62 -84 -193 -11 -266 58 -58 140 -40 182 40 21 41
21 133 0 174 -37 71 -116 95 -171 52z"/>
<path d="M2280 525 c0 -72 2 -74 72 -55 38 11 55 36 49 75 -5 35 -22 45 -72
45 l-49 0 0 -65z"/>
<path d="M5263 592 c-21 -3 -23 -8 -23 -74 l0 -71 52 5 c56 6 78 24 78 68 0
53 -42 81 -107 72z"/>
<path d="M6582 560 c-5 -14 -22 -55 -37 -92 -15 -37 -25 -71 -23 -75 1 -4 35
-6 74 -3 l72 5 -29 75 c-49 125 -45 119 -57 90z"/>
</g>
</svg>
